# xmcd
#
# Track frame offsets:
#	150
#	15967
#	23510
#	32427
#	50449
#	61520
#	74747
#	85928
#	95361
#	110306
#	120882
#	128725
#	140353
#	149686
#	159477
#	166991
#
# Disc length: 2359 seconds
#
# Revision: 0
# Processed by: cddbd v1.5.2PL0 Copyright (c) Steve Scherf et al.
# Submitted via: audiograbber 1.83.01
#
DISCID=c2093510
DTITLE=Михаил Дроздов - Песни ССО ЛЭТИ
DYEAR=2007
DGENRE=Chanson
TTITLE0=Гимн ССО ЛЭТИ
TTITLE1=День - зноем
TTITLE2=Ну, пожалуйста
TTITLE3=Прморили, гады, приморили
TTITLE4=Ленинградский вальс
TTITLE5=Фанёра
TTITLE6=Для того дорога и дана
TTITLE7=Послушай, друг
TTITLE8=Альма-Матер
TTITLE9=Про собачку Тябу
TTITLE10=Пора в дорогу, старина
TTITLE11=Шепчутся деревья
TTITLE12=А была эта гадская стройка
TTITLE13=Дождь, над Невой туман
TTITLE14=Хорошо идти фрегату
TTITLE15=А всё кончается
EXTD=
EXTT0=
EXTT1=
EXTT2=
EXTT3=
EXTT4=
EXTT5=
EXTT6=
EXTT7=
EXTT8=
EXTT9=
EXTT10=
EXTT11=
EXTT12=
EXTT13=
EXTT14=
EXTT15=
PLAYORDER=
